<?xml version="1.0" standalone="no"?><!DOCTYPE svg PUBLIC "-//W3C//DTD SVG 1.1//EN" "http://www.w3.org/Graphics/SVG/1.1/DTD/svg11.dtd"><svg t="1683258402321" class="icon" viewBox="0 0 1131 1024" version="1.1" xmlns="http://www.w3.org/2000/svg" p-id="22532" xmlns:xlink="http://www.w3.org/1999/xlink" width="220.8984375" height="200"><path d="M692.224 64a56.32 56.32 0 0 1 55.808 57.344 56.832 56.832 0 0 1-55.808 57.344H429.568a57.344 57.344 0 0 1-39.936-17.408 57.856 57.856 0 0 1-15.872-39.936 56.32 56.32 0 0 1 55.808-57.344z m0-64H429.568A119.296 119.296 0 0 0 312.32 121.344a118.784 118.784 0 0 0 117.248 120.832h262.656a118.784 118.784 0 0 0 117.248-120.832A121.344 121.344 0 0 0 692.224 0z m9.216 456.192a57.344 57.344 0 0 1 0 114.688H438.784a56.832 56.832 0 0 1-39.936-16.896 58.88 58.88 0 0 1-15.872-41.984 56.832 56.832 0 0 1 55.808-55.808z m0-64H438.784a121.344 121.344 0 0 0 0 242.688h262.656a121.344 121.344 0 0 0 0-242.688z m-9.216 453.12a57.344 57.344 0 0 1 0 114.688H429.568a55.808 55.808 0 0 1-39.936-16.896 58.368 58.368 0 0 1-15.872-40.448 56.832 56.832 0 0 1 55.808-57.344z m0-63.488H429.568a121.344 121.344 0 0 0 0 242.176h262.656a119.296 119.296 0 0 0 117.248-121.344 120.832 120.832 0 0 0-117.248-120.832zM307.2 503.808L194.56 440.32c-3.072-3.072-9.216 0-9.216 6.144v25.6A169.472 169.472 0 0 1 61.952 307.2c0-143.36 153.6-168.96 157.184-172.032a33.28 33.28 0 0 0 25.088-38.4 27.136 27.136 0 0 0-31.232-28.672A242.688 242.688 0 0 0 0 307.2a243.712 243.712 0 0 0 185.344 232.96v38.4c0 6.144 6.144 6.144 9.216 6.144L307.2 516.608c6.144-3.072 6.144-9.216 0-12.8z m514.56 402.432l111.616-67.072c3.072-3.584 9.216 0 9.216 6.144V870.4a169.984 169.984 0 0 0 123.392-162.816c0-143.36-153.6-168.96-157.696-172.032a33.28 33.28 0 0 1-24.576-38.4 31.232 31.232 0 0 1 33.792-28.672 246.272 246.272 0 0 1 213.504 239.104 243.2 243.2 0 0 1-185.344 232.96v38.4c0 6.144-6.144 6.144-9.216 6.144l-114.688-67.072a9.216 9.216 0 0 1 0-12.288z" fill="#2c2c2c" p-id="22533"></path></svg>