<?xml version="1.0" encoding="UTF-8" standalone="no"?>
<!DOCTYPE svg PUBLIC "-//W3C//DTD SVG 1.1//EN"
 "http://www.w3.org/Graphics/SVG/1.1/DTD/svg11.dtd">
<!-- Generated by graphviz version 2.38.0 (20140413.2041)
 -->
<!-- Title: g Pages: 1 -->
<svg width="1256pt" height="837pt"
 viewBox="0.00 0.00 1256.28 836.52" xmlns="http://www.w3.org/2000/svg" xmlns:xlink="http://www.w3.org/1999/xlink">
<g id="graph0" class="graph" transform="scale(1 1) rotate(0) translate(4 832.519)">
<title>g</title>
<polygon fill="white" stroke="none" points="-4,4 -4,-832.519 1252.28,-832.519 1252.28,4 -4,4"/>
<!-- Colloid and Surface Chemistry -->
<g id="node1" class="node"><title>Colloid and Surface Chemistry</title>
<ellipse fill="yellow" stroke="black" stroke-width="0" cx="363.483" cy="-730.035" rx="79.8063" ry="24.0833"/>
<text text-anchor="middle" x="363.483" y="-733.435" font-family="Arial" font-size="12.00">Colloid and</text>
<text text-anchor="middle" x="363.483" y="-720.435" font-family="Arial" font-size="12.00">Surface Chemistry</text>
</g>
<!-- Physical and Theoretical Chemistry -->
<g id="node4" class="node"><title>Physical and Theoretical Chemistry</title>
<ellipse fill="yellow" stroke="black" stroke-width="0" cx="564.086" cy="-701.192" rx="91.8478" ry="24.0833"/>
<text text-anchor="middle" x="564.086" y="-704.592" font-family="Arial" font-size="12.00">Physical and</text>
<text text-anchor="middle" x="564.086" y="-691.592" font-family="Arial" font-size="12.00">Theoretical Chemistry</text>
</g>
<!-- Colloid and Surface Chemistry&#45;&gt;Physical and Theoretical Chemistry -->
<g id="edge26" class="edge"><title>Colloid and Surface Chemistry&#45;&gt;Physical and Theoretical Chemistry</title>
<path fill="none" stroke="#003d09" stroke-width="5.99894" d="M435.622,-719.663C447.853,-717.904 460.692,-716.058 473.328,-714.241"/>
<polygon fill="#003d09" stroke="#003d09" stroke-width="5.99894" points="474.251,-719.412 483.402,-712.793 472.756,-709.02 474.251,-719.412"/>
</g>
<!-- Inorganic Chemistry -->
<g id="node6" class="node"><title>Inorganic Chemistry</title>
<ellipse fill="yellow" stroke="black" stroke-width="0" cx="774.348" cy="-374.017" rx="73.0105" ry="18"/>
<text text-anchor="middle" x="774.348" y="-370.917" font-family="Arial" font-size="12.00">Inorganic Chemistry</text>
</g>
<!-- Colloid and Surface Chemistry&#45;&gt;Inorganic Chemistry -->
<g id="edge2" class="edge"><title>Colloid and Surface Chemistry&#45;&gt;Inorganic Chemistry</title>
<path fill="none" stroke="#229e36" stroke-width="2.75861" d="M389.809,-707.223C463.462,-643.402 671.143,-463.446 746.549,-398.105"/>
<polygon fill="#229e36" stroke="#229e36" stroke-width="2.75861" points="748.987,-400.624 754.252,-391.431 744.403,-395.334 748.987,-400.624"/>
</g>
<!-- Organic Chemistry -->
<g id="node7" class="node"><title>Organic Chemistry</title>
<ellipse fill="yellow" stroke="black" stroke-width="0" cx="69.5613" cy="-272.684" rx="69.6227" ry="18"/>
<text text-anchor="middle" x="69.5613" y="-269.584" font-family="Arial" font-size="12.00">Organic Chemistry</text>
</g>
<!-- Colloid and Surface Chemistry&#45;&gt;Organic Chemistry -->
<g id="edge3" class="edge"><title>Colloid and Surface Chemistry&#45;&gt;Organic Chemistry</title>
<path fill="none" stroke="#0f8422" stroke-width="5.21778" d="M348.299,-706.409C298.382,-628.736 139.535,-381.566 86.7789,-299.475"/>
<polygon fill="#0f8422" stroke="#0f8422" stroke-width="5.21778" points="90.4116,-296.683 81.1644,-290.739 82.73,-301.62 90.4116,-296.683"/>
</g>
<!-- Drug Discovery -->
<g id="node8" class="node"><title>Drug Discovery</title>
<ellipse fill="yellow" stroke="black" stroke-width="0" cx="351.911" cy="-810.519" rx="59.9246" ry="18"/>
<text text-anchor="middle" x="351.911" y="-807.419" font-family="Arial" font-size="12.00">Drug Discovery</text>
</g>
<!-- Colloid and Surface Chemistry&#45;&gt;Drug Discovery -->
<g id="edge4" class="edge"><title>Colloid and Surface Chemistry&#45;&gt;Drug Discovery</title>
<path fill="none" stroke="#27a33b" stroke-width="1.37869" d="M360.011,-754.183C358.724,-763.131 357.255,-773.351 355.924,-782.608"/>
<polygon fill="#27a33b" stroke="#27a33b" stroke-width="1.37869" points="352.456,-782.134 354.497,-792.53 359.385,-783.13 352.456,-782.134"/>
</g>
<!-- General Biochemistry, Genetics and Molecular Biology -->
<g id="node2" class="node"><title>General Biochemistry, Genetics and Molecular Biology</title>
<ellipse fill="yellow" stroke="black" stroke-width="0" cx="917.989" cy="-296.422" rx="127.973" ry="24.0833"/>
<text text-anchor="middle" x="917.989" y="-299.822" font-family="Arial" font-size="12.00">General Biochemistry,</text>
<text text-anchor="middle" x="917.989" y="-286.822" font-family="Arial" font-size="12.00">Genetics and Molecular Biology</text>
</g>
<!-- General Biochemistry, Genetics and Molecular Biology&#45;&gt;Inorganic Chemistry -->
<g id="edge11" class="edge"><title>General Biochemistry, Genetics and Molecular Biology&#45;&gt;Inorganic Chemistry</title>
<path fill="none" stroke="#4bc65f" stroke-width="0.76714" d="M875.669,-319.283C856.094,-329.858 832.981,-342.344 813.776,-352.718"/>
<polygon fill="#4bc65f" stroke="#4bc65f" stroke-width="0.76714" points="812.11,-349.64 804.976,-357.472 815.437,-355.799 812.11,-349.64"/>
</g>
<!-- General Economics, Econometrics and Finance -->
<g id="node3" class="node"><title>General Economics, Econometrics and Finance</title>
<ellipse fill="yellow" stroke="black" stroke-width="0" cx="903.374" cy="-695.017" rx="110.118" ry="24.0833"/>
<text text-anchor="middle" x="903.374" y="-698.417" font-family="Arial" font-size="12.00">General Economics,</text>
<text text-anchor="middle" x="903.374" y="-685.417" font-family="Arial" font-size="12.00">Econometrics and Finance</text>
</g>
<!-- Cell Biology -->
<g id="node5" class="node"><title>Cell Biology</title>
<ellipse fill="yellow" stroke="black" stroke-width="0" cx="717.251" cy="-568.474" rx="48.7631" ry="18"/>
<text text-anchor="middle" x="717.251" y="-565.374" font-family="Arial" font-size="12.00">Cell Biology</text>
</g>
<!-- Cell Biology&#45;&gt;Physical and Theoretical Chemistry -->
<g id="edge6" class="edge"><title>Cell Biology&#45;&gt;Physical and Theoretical Chemistry</title>
<path fill="none" stroke="#0a7b1c" stroke-width="2.07954" d="M697.852,-585.283C672.95,-606.861 629.306,-644.678 598.659,-671.234"/>
<polygon fill="#0a7b1c" stroke="#0a7b1c" stroke-width="2.07954" points="596.043,-668.87 590.777,-678.064 600.627,-674.16 596.043,-668.87"/>
</g>
<!-- Cell Biology&#45;&gt;Inorganic Chemistry -->
<g id="edge1" class="edge"><title>Cell Biology&#45;&gt;Inorganic Chemistry</title>
<path fill="none" stroke="#59d26c" stroke-width="1.32435" d="M722.52,-550.529C732.501,-516.537 754.228,-442.542 766.136,-401.985"/>
<polygon fill="#59d26c" stroke="#59d26c" stroke-width="1.32435" points="769.55,-402.783 769.009,-392.202 762.833,-400.811 769.55,-402.783"/>
</g>
<!-- Spectroscopy -->
<g id="node10" class="node"><title>Spectroscopy</title>
<ellipse fill="yellow" stroke="black" stroke-width="0" cx="564.086" cy="-46.8424" rx="54.5753" ry="18"/>
<text text-anchor="middle" x="564.086" y="-43.7424" font-family="Arial" font-size="12.00">Spectroscopy</text>
</g>
<!-- Cell Biology&#45;&gt;Spectroscopy -->
<g id="edge7" class="edge"><title>Cell Biology&#45;&gt;Spectroscopy</title>
<path fill="none" stroke="#209b34" stroke-width="1.55073" d="M711.978,-550.518C689.289,-473.246 599.868,-168.705 572.253,-74.658"/>
<polygon fill="#209b34" stroke="#209b34" stroke-width="1.55073" points="575.591,-73.6006 569.415,-64.9917 568.874,-75.5728 575.591,-73.6006"/>
</g>
<!-- Genetics -->
<g id="node9" class="node"><title>Genetics</title>
<ellipse fill="yellow" stroke="black" stroke-width="0" cx="717.251" cy="-179.561" rx="38.5652" ry="18"/>
<text text-anchor="middle" x="717.251" y="-176.461" font-family="Arial" font-size="12.00">Genetics</text>
</g>
<!-- Genetics&#45;&gt;Physical and Theoretical Chemistry -->
<g id="edge8" class="edge"><title>Genetics&#45;&gt;Physical and Theoretical Chemistry</title>
<path fill="none" stroke="#24a038" stroke-width="1.05846" d="M711.978,-197.516C689.754,-273.205 603.505,-566.941 574.028,-667.332"/>
<polygon fill="#24a038" stroke="#24a038" stroke-width="1.05846" points="570.656,-666.394 571.197,-676.975 577.372,-668.366 570.656,-666.394"/>
</g>
<!-- Genetics&#45;&gt;Inorganic Chemistry -->
<g id="edge5" class="edge"><title>Genetics&#45;&gt;Inorganic Chemistry</title>
<path fill="none" stroke="#5ed671" stroke-width="0.737217" d="M722.52,-197.506C732.501,-231.498 754.228,-305.493 766.136,-346.05"/>
<polygon fill="#5ed671" stroke="#5ed671" stroke-width="0.737217" points="762.833,-347.224 769.009,-355.832 769.55,-345.251 762.833,-347.224"/>
</g>
<!-- Genetics&#45;&gt;Spectroscopy -->
<g id="edge10" class="edge"><title>Genetics&#45;&gt;Spectroscopy</title>
<path fill="none" stroke="#43bf57" stroke-width="0.79201" d="M698.776,-163.552C672.044,-140.388 622.397,-97.3693 591.42,-70.5275"/>
<polygon fill="#43bf57" stroke="#43bf57" stroke-width="0.79201" points="593.442,-67.6484 583.592,-63.7449 588.858,-72.9387 593.442,-67.6484"/>
</g>
<!-- Catalysis -->
<g id="node15" class="node"><title>Catalysis</title>
<ellipse fill="yellow" stroke="black" stroke-width="0" cx="69.5613" cy="-475.35" rx="40.0263" ry="18"/>
<text text-anchor="middle" x="69.5613" y="-472.25" font-family="Arial" font-size="12.00">Catalysis</text>
</g>
<!-- Genetics&#45;&gt;Catalysis -->
<g id="edge28" class="edge"><title>Genetics&#45;&gt;Catalysis</title>
<path fill="none" stroke="#087719" stroke-width="0.851665" d="M689.42,-192.27C586.149,-239.433 224.792,-404.459 106.998,-458.254"/>
<polygon fill="#087719" stroke="#087719" stroke-width="0.851665" points="105.294,-455.184 97.6517,-462.522 108.202,-461.551 105.294,-455.184"/>
</g>
<!-- Oncology -->
<g id="node11" class="node"><title>Oncology</title>
<ellipse fill="yellow" stroke="black" stroke-width="0" cx="363.483" cy="-18" rx="40.0263" ry="18"/>
<text text-anchor="middle" x="363.483" y="-14.9" font-family="Arial" font-size="12.00">Oncology</text>
</g>
<!-- Oncology&#45;&gt;Physical and Theoretical Chemistry -->
<g id="edge14" class="edge"><title>Oncology&#45;&gt;Physical and Theoretical Chemistry</title>
<path fill="none" stroke="#4fca63" stroke-width="0.667005" d="M368.745,-35.9226C395.682,-127.663 518.259,-545.12 554.171,-667.426"/>
<polygon fill="#4fca63" stroke="#4fca63" stroke-width="0.667005" points="550.815,-668.419 556.991,-677.028 557.531,-666.447 550.815,-668.419"/>
</g>
<!-- Oncology&#45;&gt;Inorganic Chemistry -->
<g id="edge18" class="edge"><title>Oncology&#45;&gt;Inorganic Chemistry</title>
<path fill="none" stroke="#6ce07e" stroke-width="0.524998" d="M381.935,-33.989C447.302,-90.6297 668.109,-281.96 746.475,-349.865"/>
<polygon fill="#6ce07e" stroke="#6ce07e" stroke-width="0.524998" points="744.184,-352.511 754.033,-356.414 748.768,-347.22 744.184,-352.511"/>
</g>
<!-- Oncology&#45;&gt;Organic Chemistry -->
<g id="edge9" class="edge"><title>Oncology&#45;&gt;Organic Chemistry</title>
<path fill="none" stroke="#29a53d" stroke-width="1.01232" d="M344.649,-34.3191C294.43,-77.8344 157.107,-196.825 97.6368,-248.357"/>
<polygon fill="#29a53d" stroke="#29a53d" stroke-width="1.01232" points="95.0446,-245.972 89.7791,-255.165 99.6287,-251.262 95.0446,-245.972"/>
</g>
<!-- Oncology&#45;&gt;Spectroscopy -->
<g id="edge15" class="edge"><title>Oncology&#45;&gt;Spectroscopy</title>
<path fill="none" stroke="#53cd67" stroke-width="0.543758" d="M401.687,-23.4929C430.533,-27.6403 470.675,-33.412 503.832,-38.1792"/>
<polygon fill="#53cd67" stroke="#53cd67" stroke-width="0.543758" points="503.481,-41.6647 513.878,-39.6236 504.478,-34.7359 503.481,-41.6647"/>
</g>
<!-- Oncology&#45;&gt;Catalysis -->
<g id="edge23" class="edge"><title>Oncology&#45;&gt;Catalysis</title>
<path fill="none" stroke="#4cc760" stroke-width="0.511362" d="M352.319,-35.3702C307.444,-105.198 140.038,-365.687 86.2887,-449.322"/>
<polygon fill="#4cc760" stroke="#4cc760" stroke-width="0.511362" points="83.1977,-447.658 80.7356,-457.963 89.0865,-451.443 83.1977,-447.658"/>
</g>
<!-- Cancer Research -->
<g id="node12" class="node"><title>Cancer Research</title>
<ellipse fill="yellow" stroke="black" stroke-width="0" cx="179.131" cy="-102.191" rx="66.4668" ry="18"/>
<text text-anchor="middle" x="179.131" y="-99.0906" font-family="Arial" font-size="12.00">Cancer Research</text>
</g>
<!-- Cancer Research&#45;&gt;Physical and Theoretical Chemistry -->
<g id="edge13" class="edge"><title>Cancer Research&#45;&gt;Physical and Theoretical Chemistry</title>
<path fill="none" stroke="#4cc760" stroke-width="0.658545" d="M190.652,-120.117C244.617,-204.089 472.73,-559.04 543.236,-668.749"/>
<polygon fill="#4cc760" stroke="#4cc760" stroke-width="0.658545" points="540.45,-670.888 548.801,-677.408 546.339,-667.103 540.45,-670.888"/>
</g>
<!-- Cancer Research&#45;&gt;Inorganic Chemistry -->
<g id="edge16" class="edge"><title>Cancer Research&#45;&gt;Inorganic Chemistry</title>
<path fill="none" stroke="#5dd570" stroke-width="0.522058" d="M213.27,-117.781C315.144,-164.306 616.93,-302.127 730.482,-353.984"/>
<polygon fill="#5dd570" stroke="#5dd570" stroke-width="0.522058" points="729.053,-357.179 739.604,-358.15 731.961,-350.812 729.053,-357.179"/>
</g>
<!-- Cancer Research&#45;&gt;Organic Chemistry -->
<g id="edge12" class="edge"><title>Cancer Research&#45;&gt;Organic Chemistry</title>
<path fill="none" stroke="#19922c" stroke-width="1.03971" d="M167.612,-120.114C148.295,-150.173 109.273,-210.892 86.7168,-245.99"/>
<polygon fill="#19922c" stroke="#19922c" stroke-width="1.03971" points="83.5522,-244.44 81.0902,-254.745 89.441,-248.225 83.5522,-244.44"/>
</g>
<!-- Cancer Research&#45;&gt;Spectroscopy -->
<g id="edge22" class="edge"><title>Cancer Research&#45;&gt;Spectroscopy</title>
<path fill="none" stroke="#4ac55d" stroke-width="0.537105" d="M238.016,-93.7241C310.031,-83.37 431.278,-65.9372 503.886,-55.4978"/>
<polygon fill="#4ac55d" stroke="#4ac55d" stroke-width="0.537105" points="504.398,-58.9603 513.798,-54.0727 503.402,-52.0315 504.398,-58.9603"/>
</g>
<!-- Cancer Research&#45;&gt;Catalysis -->
<g id="edge21" class="edge"><title>Cancer Research&#45;&gt;Catalysis</title>
<path fill="none" stroke="#3bb84f" stroke-width="0.509935" d="M173.846,-120.189C156.204,-180.273 99.2457,-374.255 77.8164,-447.236"/>
<polygon fill="#3bb84f" stroke="#3bb84f" stroke-width="0.509935" points="74.3806,-446.515 74.9214,-457.096 81.0971,-448.487 74.3806,-446.515"/>
</g>
<!-- Immunology -->
<g id="node13" class="node"><title>Immunology</title>
<ellipse fill="yellow" stroke="black" stroke-width="0" cx="179.131" cy="-645.844" rx="48.0316" ry="18"/>
<text text-anchor="middle" x="179.131" y="-642.744" font-family="Arial" font-size="12.00">Immunology</text>
</g>
<!-- Immunology&#45;&gt;Physical and Theoretical Chemistry -->
<g id="edge17" class="edge"><title>Immunology&#45;&gt;Physical and Theoretical Chemistry</title>
<path fill="none" stroke="#5ed671" stroke-width="0.534538" d="M224.044,-652.301C284.783,-661.035 394.52,-676.812 472.908,-688.083"/>
<polygon fill="#5ed671" stroke="#5ed671" stroke-width="0.534538" points="472.873,-691.614 483.269,-689.573 473.869,-684.685 472.873,-691.614"/>
</g>
<!-- Immunology&#45;&gt;Inorganic Chemistry -->
<g id="edge19" class="edge"><title>Immunology&#45;&gt;Inorganic Chemistry</title>
<path fill="none" stroke="#85f296" stroke-width="0.43107" d="M209.879,-631.802C308.17,-586.914 615.023,-446.779 730.135,-394.209"/>
<polygon fill="#85f296" stroke="#85f296" stroke-width="0.43107" points="731.737,-397.325 739.379,-389.987 728.829,-390.958 731.737,-397.325"/>
</g>
<!-- Immunology&#45;&gt;Organic Chemistry -->
<g id="edge30" class="edge"><title>Immunology&#45;&gt;Organic Chemistry</title>
<path fill="none" stroke="#118724" stroke-width="0.836623" d="M173.846,-627.846C156.204,-567.762 99.2457,-373.78 77.8164,-300.798"/>
<polygon fill="#118724" stroke="#118724" stroke-width="0.836623" points="81.0971,-299.548 74.9214,-290.939 74.3806,-301.52 81.0971,-299.548"/>
</g>
<!-- Immunology&#45;&gt;Spectroscopy -->
<g id="edge25" class="edge"><title>Immunology&#45;&gt;Spectroscopy</title>
<path fill="none" stroke="#65db78" stroke-width="0.458103" d="M190.443,-628.241C245.054,-543.266 481.465,-175.404 547.118,-73.2455"/>
<polygon fill="#65db78" stroke="#65db78" stroke-width="0.458103" points="550.124,-75.0417 552.586,-64.7369 544.235,-71.2572 550.124,-75.0417"/>
</g>
<!-- Immunology&#45;&gt;Catalysis -->
<g id="edge24" class="edge"><title>Immunology&#45;&gt;Catalysis</title>
<path fill="none" stroke="#56d06a" stroke-width="0.441698" d="M167.818,-628.24C148.494,-598.172 109.031,-536.766 86.4389,-501.612"/>
<polygon fill="#56d06a" stroke="#56d06a" stroke-width="0.441698" points="89.1638,-499.379 80.813,-492.858 83.275,-503.163 89.1638,-499.379"/>
</g>
<!-- Molecular Biology -->
<g id="node14" class="node"><title>Molecular Biology</title>
<ellipse fill="yellow" stroke="black" stroke-width="0" cx="905.14" cy="-511.092" rx="67.1981" ry="18"/>
<text text-anchor="middle" x="905.14" y="-507.992" font-family="Arial" font-size="12.00">Molecular Biology</text>
</g>
<!-- Molecular Biology&#45;&gt;Inorganic Chemistry -->
<g id="edge20" class="edge"><title>Molecular Biology&#45;&gt;Inorganic Chemistry</title>
<path fill="none" stroke="#00620f" stroke-width="2.07949" d="M888.309,-493.453C865.354,-469.394 824.108,-426.167 798.038,-398.845"/>
<polygon fill="#00620f" stroke="#00620f" stroke-width="2.07949" points="800.55,-396.408 791.115,-391.589 795.486,-401.24 800.55,-396.408"/>
</g>
<!-- Economics and Econometrics -->
<g id="node16" class="node"><title>Economics and Econometrics</title>
<ellipse fill="yellow" stroke="black" stroke-width="0" cx="1141.78" cy="-695.017" rx="106.493" ry="18"/>
<text text-anchor="middle" x="1141.78" y="-691.917" font-family="Arial" font-size="12.00">Economics and Econometrics</text>
</g>
<!-- Economics and Econometrics&#45;&gt;General Economics, Econometrics and Finance -->
<g id="edge27" class="edge"><title>Economics and Econometrics&#45;&gt;General Economics, Econometrics and Finance</title>
<path fill="none" stroke="#005b0e" stroke-width="1.33563" d="M1035.13,-695.017C1031.48,-695.017 1027.82,-695.017 1024.16,-695.017"/>
<polygon fill="#005b0e" stroke="#005b0e" stroke-width="1.33563" points="1023.85,-691.517 1013.85,-695.017 1023.85,-698.517 1023.85,-691.517"/>
</g>
<!-- Biochemistry -->
<g id="node17" class="node"><title>Biochemistry</title>
<ellipse fill="yellow" stroke="black" stroke-width="0" cx="905.07" cy="-140.017" rx="51.9195" ry="18"/>
<text text-anchor="middle" x="905.07" y="-136.917" font-family="Arial" font-size="12.00">Biochemistry</text>
</g>
<!-- Chemistry (miscellaneous) -->
<g id="node18" class="node"><title>Chemistry (miscellaneous)</title>
<ellipse fill="yellow" stroke="black" stroke-width="0" cx="1073.18" cy="-140.017" rx="94.6012" ry="18"/>
<text text-anchor="middle" x="1073.18" y="-136.917" font-family="Arial" font-size="12.00">Chemistry (miscellaneous)</text>
</g>
<!-- Biochemistry&#45;&gt;Chemistry (miscellaneous) -->
<g id="edge29" class="edge"><title>Biochemistry&#45;&gt;Chemistry (miscellaneous)</title>
<path fill="none" stroke="#0e8220" stroke-width="0.870105" d="M956.88,-140.017C960.519,-140.017 964.253,-140.017 968.048,-140.017"/>
<polygon fill="#0e8220" stroke="#0e8220" stroke-width="0.870105" points="968.214,-143.517 978.214,-140.017 968.214,-136.517 968.214,-143.517"/>
</g>
</g>
</svg>
