<?xml version="1.0" encoding="utf-8"?>
<!-- Generator: Adobe Illustrator 16.0.0, SVG Export Plug-In . SVG Version: 6.00 Build 0)  -->
<!DOCTYPE svg PUBLIC "-//W3C//DTD SVG 1.1//EN" "http://www.w3.org/Graphics/SVG/1.1/DTD/svg11.dtd">
<svg version="1.1" id="图层_1" xmlns="http://www.w3.org/2000/svg" xmlns:xlink="http://www.w3.org/1999/xlink" x="0px" y="0px"
	 width="42.519px" height="42.52px" viewBox="0 0 42.519 42.52" enable-background="new 0 0 42.519 42.52" xml:space="preserve">
<g>
	<rect x="1" fill="none" width="42.519" height="42.52"/>
	<path d="M13.503,8.119c-0.17,0.498-0.403,0.961-0.697,1.389c-0.193,0.285-0.383,0.506-0.57,0.662
		c-0.188,0.157-0.343,0.234-0.468,0.234H9.625c-0.091,0.314-0.193,0.786-0.306,1.413c-0.216,1.171-0.406,2.477-0.57,3.918
		s-0.326,2.933-0.484,4.474c-0.057,0.515-0.131,1.242-0.221,2.184c-0.091,0.942-0.221,1.983-0.392,3.125
		c-0.17,1.142-0.383,2.313-0.638,3.512c-0.255,1.199-0.564,2.297-0.927,3.296h3.572h0.272c0.068-0.256,0.17-0.534,0.306-0.833
		s0.295-0.577,0.476-0.833c0.295-0.428,0.57-0.698,0.825-0.813c0.255-0.113,0.411-0.042,0.468,0.214
		c0.034,0.171,0.034,0.356,0,0.556L11.904,31.3c-0.057,0.313-0.159,0.655-0.306,1.025c-0.091,0.314-0.21,0.613-0.357,0.897
		L11.02,33.65c-0.057,0.114-0.117,0.221-0.179,0.32c-0.063,0.1-0.128,0.207-0.196,0.32c-0.068,0.086-0.139,0.179-0.212,0.277
		c-0.074,0.101-0.145,0.192-0.213,0.278c-0.057,0.058-0.11,0.114-0.162,0.171c-0.051,0.058-0.105,0.114-0.162,0.171
		c-0.08,0.114-0.159,0.186-0.238,0.214c-0.147,0.143-0.283,0.242-0.408,0.299c-0.125,0.058-0.244,0.114-0.357,0.171
		C8.734,35.93,8.587,35.973,8.451,36c-0.136,0.029-0.267,0.043-0.392,0.043H2.803H1.034c-0.147,0-0.244-0.1-0.29-0.299
		c-0.057-0.257,0-0.634,0.17-1.133c0.17-0.498,0.402-0.961,0.697-1.389c0.193-0.284,0.38-0.505,0.562-0.662
		c0.181-0.156,0.334-0.235,0.459-0.235h1.752h0.017c0.181-0.342,0.349-0.849,0.502-1.52c0.153-0.67,0.329-1.655,0.527-2.954
		c0.198-1.299,0.411-3.075,0.638-5.331c0.147-1.427,0.306-2.925,0.477-4.495c0.17-1.569,0.38-3.011,0.629-4.323
		c0.09-0.486,0.207-1.014,0.349-1.585c0.142-0.57,0.315-1.142,0.519-1.713H7.09c-0.59,0-1.137,0.016-1.642,0.043
		c-0.505,0.029-0.956,0.157-1.353,0.385c-0.091,0.058-0.15,0.071-0.179,0.043s-0.042-0.028-0.042,0
		c0.011,0.143,0.005,0.313-0.017,0.513c-0.034,0.313-0.13,0.662-0.289,1.047c-0.159,0.385-0.357,0.748-0.596,1.09
		c-0.295,0.427-0.57,0.705-0.825,0.833c-0.255,0.128-0.417,0.05-0.485-0.235c-0.012-0.085-0.017-0.228-0.017-0.427
		c0.079-0.77,0.238-1.503,0.476-2.201c0.238-0.697,0.521-1.324,0.851-1.88s0.689-1.039,1.081-1.453
		c0.391-0.412,0.785-0.719,1.182-0.918C5.814,6.93,6.412,6.759,7.031,6.729c0.618-0.027,1.176-0.042,1.675-0.042h2.331h2.348
		c0.147,0,0.238,0.085,0.272,0.256C13.725,7.229,13.674,7.621,13.503,8.119z"/>
	<path d="M27.538,9.486c-0.158,0.385-0.356,0.747-0.595,1.09c-0.307,0.455-0.587,0.74-0.843,0.854
		c-0.255,0.114-0.411,0.028-0.468-0.257c-0.033-0.085-0.039-0.214-0.017-0.385c0-0.027-0.017-0.063-0.051-0.106
		s-0.105-0.086-0.213-0.128c-0.108-0.043-0.258-0.078-0.451-0.107c-0.192-0.027-0.442-0.043-0.748-0.043H21.5
		c-0.125,1.567-0.279,3.135-0.46,4.701c-0.182,1.566-0.386,3.147-0.612,4.743h4.712c0.137,0,0.232,0.085,0.289,0.256
		c0.022,0.171,0.028,0.313,0.018,0.428l-0.068,0.641c-0.034,0.313-0.128,0.662-0.28,1.047c-0.153,0.385-0.349,0.748-0.587,1.09
		c-0.307,0.427-0.587,0.698-0.843,0.812c-0.255,0.114-0.411,0.043-0.468-0.214c-0.034-0.085-0.039-0.198-0.017-0.342h-3.368
		c-0.227,1.367-0.477,2.707-0.749,4.017c-0.272,1.311-0.562,2.621-0.868,3.932l-0.391,1.367c-0.034,0.086-0.068,0.179-0.103,0.277
		c-0.034,0.101-0.074,0.192-0.119,0.278l-0.409,1.025c-0.057,0.114-0.116,0.229-0.178,0.342c-0.063,0.114-0.134,0.242-0.213,0.385
		l-0.221,0.385l-0.187,0.256l-0.221,0.3c-0.113,0.142-0.224,0.284-0.332,0.427c-0.108,0.143-0.213,0.242-0.315,0.299l-0.255,0.171
		c-0.102,0.057-0.196,0.1-0.281,0.129c-0.085,0.027-0.173,0.07-0.264,0.128c-0.533,0.085-1.004-0.114-1.412-0.599
		s-0.726-1.153-0.953-2.008c-0.068-0.284-0.017-0.677,0.153-1.175c0.17-0.499,0.402-0.962,0.697-1.39
		c0.295-0.455,0.57-0.74,0.825-0.854c0.255-0.113,0.411-0.042,0.468,0.214c0.192,0.656,0.419,1.154,0.68,1.496
		s0.533,0.541,0.817,0.598l0.153-0.556c0.442-1.595,0.817-3.261,1.123-4.999c0.306-1.737,0.595-3.489,0.867-5.256
		c0.329-2.051,0.604-4.108,0.825-6.175c0.221-2.064,0.394-4.123,0.519-6.175h-0.749c-0.59,0-1.035,0.2-1.335,0.599
		c-0.301,0.399-0.508,1.169-0.621,2.308c-0.034,0.313-0.13,0.662-0.289,1.047c-0.159,0.385-0.352,0.748-0.579,1.09
		c-0.306,0.427-0.586,0.705-0.842,0.833s-0.411,0.05-0.468-0.235c-0.034-0.113-0.04-0.256-0.017-0.427
		c0.136-1.311,0.411-2.514,0.825-3.611c0.414-1.096,0.896-2.036,1.446-2.82c0.55-0.783,1.134-1.395,1.752-1.837
		c0.618-0.441,1.193-0.662,1.727-0.662h5.426c0.103,0,0.272,0,0.511,0c0.249,0,0.499,0.042,0.748,0.128
		c0.25,0.086,0.457,0.25,0.621,0.491c0.164,0.242,0.224,0.62,0.179,1.133C27.788,8.753,27.697,9.102,27.538,9.486z"/>
	<path d="M41.862,6.046l-0.085,0.471c-0.046,0.229-0.131,0.498-0.255,0.812l-0.137,0.385c-0.091,0.229-0.195,0.456-0.314,0.684
		c-0.119,0.229-0.252,0.442-0.399,0.641l-0.289,0.385C40.268,9.564,40.158,9.7,40.05,9.828c-0.108,0.128-0.207,0.221-0.298,0.277
		l-0.374,0.257c-0.261,0.171-0.521,0.264-0.782,0.277c-0.262,0.015-0.46,0.021-0.596,0.021h-2.722l-1.634,16.451
		c-0.283,2.905-0.72,5.812-1.31,8.717c-0.125,0.684-0.437,1.382-0.936,2.094c-0.329,0.484-0.63,0.798-0.901,0.94
		c-0.272,0.143-0.442,0.085-0.511-0.171c-0.034-0.143-0.022-0.356,0.034-0.641c0.261-1.34,0.496-2.692,0.706-4.06
		s0.383-2.763,0.519-4.188l1.77-17.819c0.034-0.398,0.176-0.84,0.425-1.324h-3.896c-0.091,0-0.176,0-0.255,0
		c-0.068,0-0.134,0.05-0.195,0.149c-0.063,0.101-0.114,0.285-0.153,0.556c-0.04,0.271-0.077,0.677-0.11,1.218
		c-0.023,0.313-0.122,0.691-0.298,1.133s-0.406,0.861-0.689,1.26c-0.329,0.485-0.629,0.798-0.901,0.94s-0.442,0.086-0.511-0.171
		c-0.011-0.057-0.017-0.156-0.017-0.299c0.057-0.969,0.244-1.973,0.562-3.013s0.708-1.987,1.174-2.842
		c0.465-0.854,0.98-1.552,1.548-2.094c0.567-0.541,1.134-0.812,1.701-0.812h8.778l0.289-0.471c0.317-0.513,0.615-0.833,0.893-0.961
		c0.278-0.128,0.451-0.05,0.52,0.235C41.913,5.604,41.907,5.79,41.862,6.046z"/>
</g>
<g>
</g>
<g>
</g>
<g>
</g>
<g>
</g>
<g>
</g>
<g>
</g>
</svg>
