<?xml version="1.0" standalone="no"?><!DOCTYPE svg PUBLIC "-//W3C//DTD SVG 1.1//EN" "http://www.w3.org/Graphics/SVG/1.1/DTD/svg11.dtd"><svg t="1682560170840" class="icon" viewBox="0 0 1024 1024" version="1.1" xmlns="http://www.w3.org/2000/svg" p-id="34598" xmlns:xlink="http://www.w3.org/1999/xlink" width="200" height="200"><path d="M1010.336 615.968l0 101.984c-90.08-100.48-214.112-226.496-269.76-226.496-71.744 0-157.376 124.512-207.52 124.512-91.648 0-143.52-269.792-249.024-269.792-55.264 0-179.68 143.36-269.76 257.184l0-402.464c0-68.768 55.744-124.512 124.512-124.512l747.072 0c68.768 0 124.512 55.744 124.512 124.512l0 415.04zM284.032 449.952c44.928 0 90.112 249.024 249.024 249.024 87.936 0 160.384-124.512 207.52-124.512 45.216 0 194.56 171.2 268.704 259.648-5.472 63.712-58.304 113.888-123.424 113.888l-747.072 0c-68.768 0-124.512-55.744-124.512-124.512l0-94.144c74.848-93.632 228.544-279.392 269.76-279.392zM1010.336 835.392c-0.384-0.448-0.704-0.864-1.088-1.312 0.288-3.552 1.088-6.976 1.088-10.592l0 11.904zM14.24 729.344l0 0z" fill="#000000" p-id="34599"></path></svg>