<?xml version="1.0" encoding="utf-8"?>
<!-- Generator: Adobe Illustrator 16.0.0, SVG Export Plug-In . SVG Version: 6.00 Build 0)  -->
<!DOCTYPE svg PUBLIC "-//W3C//DTD SVG 1.1//EN" "http://www.w3.org/Graphics/SVG/1.1/DTD/svg11.dtd">
<svg version="1.1" id="图层_1" xmlns="http://www.w3.org/2000/svg" xmlns:xlink="http://www.w3.org/1999/xlink" x="0px" y="0px"
	 width="42.52px" height="42.52px" viewBox="0 0 42.52 42.52" enable-background="new 0 0 42.52 42.52" xml:space="preserve">
<g>
	<rect fill="none" width="42.52" height="42.52"/>
	<path d="M24.475,9.486c-0.158,0.385-0.355,0.747-0.594,1.09c-0.307,0.455-0.588,0.74-0.844,0.854
		c-0.254,0.114-0.41,0.028-0.467-0.257c-0.033-0.085-0.039-0.214-0.018-0.385c0-0.027-0.016-0.063-0.051-0.106
		c-0.033-0.043-0.105-0.086-0.213-0.128c-0.107-0.043-0.258-0.078-0.452-0.107c-0.191-0.027-0.441-0.043-0.748-0.043h-2.653
		c-0.125,1.567-0.278,3.135-0.459,4.701c-0.182,1.566-0.386,3.147-0.612,4.743h4.712c0.137,0,0.232,0.085,0.289,0.256
		c0.023,0.171,0.029,0.313,0.018,0.428l-0.068,0.641c-0.033,0.313-0.127,0.662-0.279,1.047c-0.155,0.385-0.35,0.748-0.588,1.09
		c-0.307,0.427-0.586,0.698-0.842,0.812c-0.256,0.114-0.411,0.043-0.468-0.214c-0.034-0.085-0.04-0.198-0.017-0.342h-3.368
		c-0.227,1.367-0.477,2.707-0.749,4.017c-0.272,1.311-0.562,2.621-0.868,3.932l-0.391,1.367c-0.034,0.086-0.068,0.179-0.103,0.277
		c-0.034,0.101-0.074,0.192-0.119,0.278l-0.409,1.025c-0.057,0.114-0.116,0.229-0.178,0.342c-0.063,0.114-0.134,0.242-0.213,0.385
		l-0.221,0.385l-0.187,0.256l-0.221,0.3c-0.113,0.142-0.224,0.284-0.332,0.427c-0.108,0.143-0.213,0.242-0.315,0.299l-0.255,0.171
		c-0.102,0.057-0.196,0.1-0.281,0.129c-0.085,0.027-0.173,0.07-0.264,0.128c-0.533,0.085-1.004-0.114-1.412-0.599
		S9.51,35.53,9.284,34.676c-0.068-0.284-0.017-0.677,0.153-1.175c0.17-0.499,0.402-0.962,0.697-1.39
		c0.295-0.455,0.57-0.74,0.825-0.854c0.255-0.113,0.411-0.042,0.468,0.214c0.192,0.656,0.419,1.154,0.68,1.496
		s0.533,0.541,0.817,0.598l0.153-0.556c0.442-1.595,0.817-3.261,1.123-4.999c0.306-1.737,0.595-3.489,0.867-5.256
		c0.329-2.051,0.604-4.108,0.825-6.175c0.221-2.064,0.394-4.123,0.519-6.175h-0.749c-0.59,0-1.035,0.2-1.335,0.599
		c-0.301,0.399-0.508,1.169-0.621,2.308c-0.034,0.313-0.13,0.662-0.289,1.047c-0.159,0.385-0.352,0.748-0.579,1.09
		c-0.306,0.427-0.586,0.705-0.842,0.833s-0.411,0.05-0.468-0.235c-0.034-0.113-0.04-0.256-0.017-0.427
		c0.136-1.311,0.411-2.514,0.825-3.611c0.414-1.096,0.896-2.036,1.446-2.82c0.55-0.783,1.134-1.395,1.752-1.837
		c0.618-0.441,1.193-0.662,1.727-0.662h5.427c0.102,0,0.271,0,0.51,0c0.25,0,0.5,0.042,0.748,0.128
		c0.25,0.086,0.457,0.25,0.621,0.491c0.164,0.242,0.225,0.62,0.18,1.133C24.725,8.753,24.635,9.102,24.475,9.486z"/>
	<path d="M38.799,6.046l-0.086,0.471c-0.045,0.229-0.131,0.498-0.254,0.812l-0.137,0.385c-0.092,0.229-0.195,0.456-0.314,0.684
		c-0.119,0.229-0.252,0.442-0.4,0.641l-0.289,0.385c-0.113,0.143-0.225,0.278-0.332,0.406s-0.207,0.221-0.297,0.277l-0.375,0.257
		c-0.26,0.171-0.521,0.264-0.781,0.277c-0.262,0.015-0.461,0.021-0.596,0.021h-2.723l-1.633,16.451
		c-0.283,2.905-0.721,5.812-1.311,8.717c-0.125,0.684-0.436,1.382-0.936,2.094c-0.328,0.484-0.629,0.798-0.9,0.94
		c-0.273,0.143-0.443,0.085-0.512-0.171c-0.033-0.143-0.021-0.356,0.035-0.641c0.26-1.34,0.496-2.692,0.705-4.06
		c0.211-1.367,0.383-2.763,0.52-4.188l1.77-17.819c0.033-0.398,0.176-0.84,0.424-1.324h-3.895c-0.092,0-0.176,0-0.256,0
		c-0.068,0-0.133,0.05-0.195,0.149c-0.063,0.101-0.113,0.285-0.152,0.556c-0.041,0.271-0.078,0.677-0.111,1.218
		c-0.023,0.313-0.121,0.691-0.297,1.133s-0.406,0.861-0.689,1.26c-0.33,0.485-0.629,0.798-0.902,0.94
		c-0.271,0.143-0.441,0.086-0.51-0.171c-0.012-0.057-0.018-0.156-0.018-0.299c0.057-0.969,0.244-1.973,0.563-3.013
		c0.316-1.04,0.707-1.987,1.174-2.842c0.465-0.854,0.98-1.552,1.547-2.094c0.568-0.541,1.135-0.812,1.701-0.812h8.779l0.289-0.471
		c0.316-0.513,0.615-0.833,0.893-0.961s0.451-0.05,0.52,0.235C38.85,5.604,38.844,5.79,38.799,6.046z"/>
</g>
<g>
</g>
<g>
</g>
<g>
</g>
<g>
</g>
<g>
</g>
<g>
</g>
</svg>
