<?xml version="1.0" standalone="no"?><!DOCTYPE svg PUBLIC "-//W3C//DTD SVG 1.1//EN" "http://www.w3.org/Graphics/SVG/1.1/DTD/svg11.dtd"><svg t="1682559646590" class="icon" viewBox="0 0 1024 1024" version="1.1" xmlns="http://www.w3.org/2000/svg" p-id="26105" xmlns:xlink="http://www.w3.org/1999/xlink" width="200" height="200"><path d="M478.61 631.18l-10.57-10.57-25.27-25.27-30.29-30.29-25.62-25.62c-3.76-3.76-7.53-7.51-11.28-11.28a45.613 45.613 0 0 1-3.57-4.04c1.3 1.69 2.61 3.37 3.91 5.06a76591182022511300 76591182022511300 0 0 0-6.05-14.46c0.3 2.22 0.6 4.43 0.89 6.65-0.5-3.83-0.5-7.68 0-11.51-0.3 2.22-0.6 4.43-0.89 6.65a44.23 44.23 0 0 1 2.95-10.83l-2.52 5.97c1.46-3.43 3.34-6.64 5.62-9.6-1.3 1.69-2.61 3.37-3.91 5.06 3.66-4.67 8.32-8.64 12.57-12.76 8.12-7.86 16.23-15.73 24.35-23.59 10.05-9.74 20.11-19.48 30.16-29.22 8.83-8.56 17.66-17.12 26.49-25.67 4.28-4.15 8.6-8.27 12.85-12.45l0.18-0.18c2.44-2.26 4.16-4.95 5.17-8.05 1.57-2.98 2.28-6.19 2.15-9.63 0.13-3.44-0.59-6.65-2.15-9.63-1.01-3.1-2.73-5.78-5.17-8.05-4.76-4.37-11.02-7.62-17.68-7.32-2.22 0.3-4.43 0.6-6.65 0.89-4.24 1.19-7.91 3.33-11.03 6.43-4.26 4.13-8.52 8.25-12.77 12.38-9.78 9.48-19.57 18.96-29.35 28.44l-32.97 31.95c-7.9 7.66-15.81 15.32-23.71 22.98-1.4 1.35-2.8 2.69-4.19 4.06-1.11 1.1-2.16 2.27-3.14 3.48-2.96 3.68-6.01 7.42-8.26 11.6-2.26 4.2-4.14 8.67-5.59 13.22-1.47 4.62-1.98 9.45-2.57 14.24-0.32 2.63-0.42 5.27-0.27 7.92 0.29 4.85 0.91 9.77 2.09 14.49 1.14 4.56 3.1 8.93 5.03 13.19 1.17 2.6 2.61 5.07 4.27 7.38 3.22 4.46 6.6 8.52 10.44 12.36l20.22 20.22 31.74 31.74 30.73 30.73 17.46 17.46 0.82 0.82c2.26 2.44 4.95 4.16 8.05 5.17 2.98 1.57 6.19 2.28 9.63 2.15 3.44 0.13 6.65-0.59 9.63-2.15 3.1-1.01 5.78-2.73 8.05-5.17 4.37-4.76 7.62-11.02 7.32-17.68-0.27-6.63-2.51-12.89-7.3-17.67z" p-id="26106"></path><path d="M345.38 540.6H704.86c4.86 0 9.72 0.03 14.57 0h0.64c6.41 0 13.14-2.79 17.68-7.32 4.34-4.34 7.6-11.45 7.32-17.68-0.29-6.47-2.41-13.17-7.32-17.68-4.89-4.49-10.9-7.32-17.68-7.32H360.59c-4.86 0-9.72-0.03-14.57 0h-0.64c-6.41 0-13.14 2.79-17.68 7.32-4.34 4.34-7.6 11.45-7.32 17.68 0.29 6.47 2.41 13.17 7.32 17.68 4.88 4.49 10.91 7.32 17.68 7.32z" p-id="26107"></path><path d="M836.4 242.42v529.42c0 6.57 0.02 13.14 0 19.7a73.25 73.25 0 0 1-0.55 8.88c0.3-2.22 0.6-4.43 0.89-6.65-0.8 5.74-2.32 11.29-4.56 16.64l2.52-5.97a67.105 67.105 0 0 1-8.07 13.79c1.3-1.69 2.61-3.37 3.91-5.06a67.807 67.807 0 0 1-11.85 11.85c1.69-1.3 3.37-2.61 5.06-3.91a67.105 67.105 0 0 1-13.79 8.07l5.97-2.52a66.792 66.792 0 0 1-16.64 4.56c2.22-0.3 4.43-0.6 6.65-0.89-7.06 0.88-14.33 0.55-21.43 0.55H268.37c-6.65 0-13.31 0.02-19.96 0-2.98-0.01-5.94-0.18-8.9-0.55 2.22 0.3 4.43 0.6 6.65 0.89-5.74-0.8-11.29-2.32-16.64-4.56l5.97 2.52a67.105 67.105 0 0 1-13.79-8.07c1.69 1.3 3.37 2.61 5.06 3.91a67.807 67.807 0 0 1-11.85-11.85c1.3 1.69 2.61 3.37 3.91 5.06a76591182022511300 76591182022511300 0 0 0-10.11-24.46c0.3 2.22 0.6 4.43 0.89 6.65-0.88-7.06-0.55-14.33-0.55-21.43v-39.31-59.59-72.63-80.44-80.89-75.26-63.23-44.79c0-6.65-0.02-13.31 0-19.96 0.01-2.98 0.18-5.94 0.55-8.9-0.3 2.22-0.6 4.43-0.89 6.65 0.8-5.74 2.32-11.29 4.56-16.64l-2.52 5.97c2.14-4.92 4.83-9.51 8.07-13.79-1.3 1.69-2.61 3.37-3.91 5.06 3.46-4.44 7.41-8.39 11.85-11.85-1.69 1.3-3.37 2.61-5.06 3.91 4.28-3.24 8.87-5.93 13.79-8.07l-5.97 2.52c5.35-2.24 10.9-3.76 16.64-4.56-2.22 0.3-4.43 0.6-6.65 0.89 7.06-0.88 14.33-0.55 21.43-0.55h516.14c6.65 0 13.31-0.02 19.96 0 2.98 0.01 5.94 0.18 8.9 0.55-2.22-0.3-4.43-0.6-6.65-0.89 5.74 0.8 11.29 2.32 16.64 4.56l-5.97-2.52c4.92 2.14 9.51 4.83 13.79 8.07-1.69-1.3-3.37-2.61-5.06-3.91 4.44 3.46 8.39 7.41 11.85 11.85-1.3-1.69-2.61-3.37-3.91-5.06 3.24 4.28 5.93 8.87 8.07 13.79l-2.52-5.97c2.24 5.35 3.76 10.9 4.56 16.64-0.3-2.22-0.6-4.43-0.89-6.65 0.35 2.8 0.53 5.6 0.55 8.43 0.1 13.07 11.43 25.61 25 25 13.46-0.6 25.1-10.99 25-25-0.18-24.97-10.91-50.55-30.28-66.74-16.75-14-36.83-22.05-58.82-22.16-6.97-0.03-13.95 0-20.92 0H274.4c-8.47 0-16.94-0.01-25.41 0-14.8 0.02-28.77 3.47-42 10.02-22.05 10.93-39.13 32.79-45.12 56.57-2.98 11.83-2.83 23.44-2.83 35.42V787.7c0 2.21-0.04 4.43 0.04 6.64 0.91 25.03 12.16 50.01 31.96 65.75 10.56 8.39 22.21 15.03 35.47 18.16 7.06 1.67 14.44 2.58 21.71 2.61 2.23 0.01 4.46 0 6.7 0H796.58c15.25-0.02 29.99-3.69 43.46-10.84 21.68-11.51 38.65-33.53 43.96-57.53 1.68-7.62 2.41-15.4 2.41-23.19v-29.69-56.47-74.75-85.51V455v-81.82-68.06-46.39-16.33c0-13.08-11.5-25.6-25-25-13.56 0.63-25.01 11.01-25.01 25.02z" p-id="26108"></path></svg>