<?xml version="1.0" encoding="utf-8"?>
<!-- Generator: Adobe Illustrator 16.0.0, SVG Export Plug-In . SVG Version: 6.00 Build 0)  -->
<!DOCTYPE svg PUBLIC "-//W3C//DTD SVG 1.1//EN" "http://www.w3.org/Graphics/SVG/1.1/DTD/svg11.dtd">
<svg version="1.1" id="图层_1" xmlns="http://www.w3.org/2000/svg" xmlns:xlink="http://www.w3.org/1999/xlink" x="0px" y="0px"
	 width="142px" height="142.25px" viewBox="0 0 142 142.25" enable-background="new 0 0 142 142.25" xml:space="preserve">
<g>
	<path fill="#0668A2" d="M140.377,118.959c0,11.526-9.342,20.87-20.869,20.87H23.077c-11.527,0-20.87-9.344-20.87-20.87V22.529
		c0-11.526,9.343-20.87,20.87-20.87h96.431c11.527,0,20.869,9.344,20.869,20.87V118.959z"/>
	<g>
		<path fill="#FFFFFF" stroke="#FFFFFF" stroke-width="5.5" stroke-miterlimit="10" d="M40.976,62.29
			c-1.577,3.639-3.447,6.795-5.61,9.469c-2.164,2.676-4.501,4.798-7.013,6.367c-2.512,1.57-4.978,2.354-7.398,2.354
			c-0.294,0-0.459-0.107-0.495-0.32c-0.11-0.427,0.018-1.015,0.385-1.762c0.366-0.748,0.861-1.512,1.485-2.296
			c0.916-0.996,1.668-1.495,2.255-1.495c1.723,0,3.391-0.411,5.005-1.231c1.613-0.821,3.08-2.069,4.4-3.747
			c1.32-1.677,2.456-3.747,3.41-6.209c0.953-2.462,1.65-5.371,2.09-8.726c0.44-3.211,0.375-6.049-0.192-8.512
			c-0.569-2.462-1.467-4.496-2.695-6.103c-1.229-1.605-2.705-2.819-4.428-3.64c-1.724-0.821-3.539-1.231-5.445-1.231h-2.86
			c-1.284,22.495-4.327,45.024-9.13,67.588c-0.184,0.996-0.807,2.063-1.87,3.203c-0.624,0.782-1.201,1.281-1.732,1.495
			c-0.532,0.214-0.872,0.142-1.018-0.213c-0.037-0.144-0.019-0.392,0.055-0.748c2.53-11.887,4.565-23.774,6.105-35.663
			c1.54-11.887,2.585-23.774,3.135-35.663c-2.64,0.144-4.758,0.944-6.353,2.402c-1.595,1.46-2.613,3.934-3.053,7.421
			c-0.074,0.427-0.285,0.961-0.633,1.602c-0.349,0.641-0.779,1.247-1.292,1.815c-0.66,0.784-1.256,1.281-1.788,1.495
			c-0.532,0.214-0.853,0.144-0.962-0.213c-0.037-0.142-0.037-0.32,0-0.534c0.44-3.345,1.329-6.263,2.667-8.755
			c1.338-2.491,2.896-4.555,4.675-6.193c1.778-1.637,3.639-2.864,5.583-3.684c1.943-0.817,3.722-1.228,5.335-1.228h6.82
			c2.053,0,4.015,0.429,5.885,1.285s3.465,2.157,4.785,3.906c1.32,1.749,2.282,3.959,2.888,6.633
			c0.605,2.676,0.668,5.796,0.192,9.363C43.616,54.729,42.552,58.652,40.976,62.29z"/>
		<path fill="#FFFFFF" stroke="#FFFFFF" stroke-width="5.5" stroke-miterlimit="10" d="M68.669,60.085
			c-0.532,0.285-1.017,0.712-1.458,1.281c-0.477,0.641-0.871,1.407-1.182,2.296c-0.312,0.891-0.578,1.833-0.798,2.83l-9.57,45.059
			c-0.33,1.637-0.734,3.22-1.21,4.751c-0.477,1.53-1.009,2.899-1.595,4.111c-0.587,1.209-1.237,2.17-1.953,2.883
			c-0.715,0.711-1.512,1.068-2.393,1.068c-0.66,0-1.302-0.205-1.925-0.612c-0.624-0.411-1.165-0.998-1.623-1.762
			c-0.459-0.768-0.825-1.684-1.1-2.751c-0.275-1.067-0.413-2.242-0.413-3.523c0-1.495,0.235-2.616,0.707-3.363
			s0.996-1.121,1.576-1.121c0.579,0,1.105,0.374,1.576,1.121c0.471,0.748,0.707,1.869,0.707,3.363c0,1.423-0.227,2.491-0.68,3.203
			c-0.453,0.711-0.951,1.103-1.494,1.175c0.327,0.641,0.716,1.121,1.168,1.441c0.453,0.32,0.935,0.48,1.446,0.48
			c0.696,0,1.329-0.304,1.897-0.909c0.568-0.607,1.091-1.392,1.567-2.353c0.476-0.964,0.889-2.069,1.238-3.316
			c0.348-1.248,0.668-2.514,0.962-3.797l1.925-9.198l-8.194-38.933c-0.145-0.641-0.317-1.265-0.517-1.872
			c-0.199-0.606-0.461-1.051-0.787-1.336c-0.362-0.357-0.834-0.552-1.414-0.589c-0.579-0.035-1.141-0.054-1.685-0.054v-3.31
			c1.906,0.285,3.804,0.41,5.693,0.374c1.888-0.035,3.786-0.16,5.693-0.374v3.31c-0.477,0-0.945,0.037-1.403,0.107
			c-0.459,0.072-0.872,0.357-1.237,0.854c-0.257,0.357-0.404,0.784-0.44,1.281c-0.037,0.499,0,1.033,0.11,1.602l6.215,29.47
			l5.665-26.48c0.183-0.783,0.266-1.602,0.248-2.456c-0.019-0.854-0.157-1.637-0.413-2.349c-0.22-0.71-0.532-1.228-0.935-1.548
			c-0.404-0.321-0.825-0.481-1.265-0.481v-3.31c1.503,0.213,2.988,0.338,4.455,0.374c1.466,0.037,2.933-0.088,4.4-0.374v3.31
			C69.723,59.658,69.201,59.802,68.669,60.085z"/>
		<path fill="#FFFFFF" stroke="#FFFFFF" stroke-width="5.5" stroke-miterlimit="10" d="M99.729,75.767H83.883l-2.777,12.539
			c-0.685,3.086-1.026,5.391-1.026,6.914c0,1.211,0.297,2.276,0.891,3.193c0.593,0.918,1.876,1.514,3.848,1.787v2.168H71.93V100.2
			c1.71-0.586,2.817-1.348,3.32-2.285c1.026-1.875,2.163-5.684,3.411-11.426l14.397-65.391h1.056l14.247,66.094
			c1.146,5.313,2.188,8.76,3.124,10.342s2.238,2.471,3.908,2.666v2.168H99.246V100.2c1.63-0.156,2.731-0.683,3.305-1.582
			c0.573-0.898,0.86-1.992,0.86-3.281c0-1.718-0.402-4.433-1.207-8.145L99.729,75.767z M98.884,71.431l-6.942-32.109l-7.123,32.109
			H98.884z"/>
		<path fill="#FFFFFF" stroke="#FFFFFF" stroke-width="5.5" stroke-miterlimit="10" d="M135.888,47.114v18.281h-0.996
			c-0.765-5.742-1.745-9.648-2.942-11.719c-1.197-2.07-2.722-3.105-4.573-3.105c-1.408,0-2.545,0.723-3.41,2.168
			c-0.865,1.446-1.298,3.047-1.298,4.805c0,2.188,0.321,4.063,0.966,5.625c0.623,1.602,1.891,3.301,3.803,5.098l4.407,4.16
			c4.084,3.867,6.127,8.965,6.127,15.293c0,4.883-0.951,8.818-2.853,11.807s-4.029,4.482-6.384,4.482
			c-1.69,0-3.622-0.586-5.795-1.758c-0.664-0.39-1.207-0.586-1.63-0.586c-0.463,0-0.825,0.508-1.087,1.523h-0.996v-19.16h0.996
			c0.563,5.469,1.64,9.59,3.229,12.363c1.59,2.774,3.37,4.16,5.343,4.16c1.389,0,2.521-0.791,3.396-2.373s1.313-3.486,1.313-5.713
			c0-2.695-0.488-4.96-1.464-6.797c-0.977-1.835-2.924-4.16-5.841-6.973c-2.918-2.813-4.829-5.351-5.734-7.617
			c-0.906-2.227-1.358-5.039-1.358-8.438c0-4.414,0.779-8.105,2.339-11.074c1.56-2.968,3.577-4.453,6.052-4.453
			c1.087,0,2.404,0.45,3.954,1.348c1.026,0.586,1.71,0.879,2.053,0.879c0.321,0,0.573-0.136,0.754-0.41
			c0.182-0.273,0.393-0.879,0.634-1.816H135.888z"/>
	</g>
</g>
<g>
</g>
<g>
</g>
<g>
</g>
<g>
</g>
<g>
</g>
<g>
</g>
</svg>
